<svg width="16" height="18" viewBox="0 0 16 18" fill="none" xmlns="http://www.w3.org/2000/svg">
<path fill-rule="evenodd" clip-rule="evenodd" d="M7.99133 16.502C8.95783 16.502 9.74133 15.7185 9.74133 14.752C9.74133 13.7855 8.95783 13.002 7.99133 13.002C7.02483 13.002 6.24133 13.7855 6.24133 14.752C6.24133 15.7185 7.02483 16.502 7.99133 16.502Z" stroke="#6A6781" stroke-width="1.5" stroke-linecap="round" stroke-linejoin="round"/>
<path fill-rule="evenodd" clip-rule="evenodd" d="M7.99133 5.00201C8.95783 5.00201 9.74133 4.21851 9.74133 3.25201C9.74133 2.28552 8.95783 1.50201 7.99133 1.50201C7.02483 1.50201 6.24133 2.28552 6.24133 3.25201C6.24133 4.21851 7.02483 5.00201 7.99133 5.00201Z" stroke="#6A6781" stroke-width="1.5" stroke-linecap="round" stroke-linejoin="round"/>
<path fill-rule="evenodd" clip-rule="evenodd" d="M7.99133 10.752C8.95783 10.752 9.74133 9.96851 9.74133 9.00201C9.74133 8.03552 8.95783 7.25201 7.99133 7.25201C7.02483 7.25201 6.24133 8.03552 6.24133 9.00201C6.24133 9.96851 7.02483 10.752 7.99133 10.752Z" stroke="#6A6781" stroke-width="1.5" stroke-linecap="round" stroke-linejoin="round"/>
</svg>
