<svg width="38" height="42" viewBox="0 0 38 42" fill="none" xmlns="http://www.w3.org/2000/svg">
<path d="M17.25 1.01036C18.3329 0.385148 19.6671 0.385149 20.75 1.01036L35.4365 9.48964C36.5194 10.1149 37.1865 11.2703 37.1865 12.5207V29.4793C37.1865 30.7297 36.5194 31.8852 35.4365 32.5104L20.75 40.9896C19.6671 41.6149 18.3329 41.6149 17.25 40.9896L2.56348 32.5104C1.48057 31.8852 0.813477 30.7297 0.813477 29.4793V12.5207C0.813477 11.2703 1.48057 10.1149 2.56348 9.48964L17.25 1.01036Z" fill="white"/>
<path fill-rule="evenodd" clip-rule="evenodd" d="M34.8334 10.0198L20.5619 1.78017C19.5828 1.21489 18.3765 1.21489 17.3974 1.78017L3.12595 10.0198C2.14686 10.5851 1.54371 11.6298 1.54371 12.7603V29.2396C1.54371 30.3702 2.14686 31.4149 3.12595 31.9802L17.3974 40.2198C18.3765 40.7851 19.5828 40.7851 20.5619 40.2198L34.8334 31.9802C35.8125 31.4149 36.4157 30.3702 36.4157 29.2397V12.7603C36.4157 11.6298 35.8125 10.5851 34.8334 10.0198ZM21.24 0.605659C19.8413 -0.201886 18.1181 -0.201887 16.7193 0.605659L2.44785 8.84531C1.04914 9.65285 0.1875 11.1453 0.1875 12.7603V29.2396C0.1875 30.8547 1.04914 32.3471 2.44785 33.1547L16.7193 41.3943C18.118 42.2019 19.8413 42.2019 21.24 41.3943L35.5115 33.1547C36.9102 32.3471 37.7719 30.8547 37.7719 29.2397V12.7603C37.7719 11.1453 36.9102 9.65285 35.5115 8.84531L21.24 0.605659Z" fill="black"/>
<g clip-path="url(#clip0_3423_562)">
<path d="M20.2398 23.2206C20.2398 23.9321 19.6238 24.3767 19.0782 24.3767C18.5327 24.3767 17.8781 24.1556 17.8781 23.2206V22.7658H17.1594V23.2206C17.1594 24.2561 18.0205 25.0983 19.0782 25.0983C20.1359 25.0983 20.997 24.2561 20.997 23.2206V22.7658H20.2398V23.2206Z" fill="#130B43"/>
<path d="M14.2035 21.0245C14.2035 20.3451 14.7928 19.7926 15.5168 19.7926C16.2403 19.7926 16.8296 20.3456 16.8296 21.0245H17.6568C17.6568 19.9167 16.6973 19.0158 15.5168 19.0158C14.3363 19.0158 13.3763 19.9167 13.3763 21.0245H14.2035Z" fill="#130B43"/>
<path d="M21.0201 21.0245C21.0201 20.3451 21.6093 19.7926 22.3328 19.7926C23.0568 19.7926 23.6461 20.3456 23.6461 21.0245H24.4733C24.4733 19.9167 23.5133 19.0158 22.3328 19.0158C21.1524 19.0158 20.1929 19.9167 20.1929 21.0245H21.0201Z" fill="#130B43"/>
<path fill-rule="evenodd" clip-rule="evenodd" d="M25.8081 18.3893V15.7193C25.8081 14.8195 25.6987 14.1952 25.4799 13.8464C25.2611 13.4975 24.8056 13.2286 24.1134 13.0395C23.9044 12.9808 23.7999 12.8863 23.7999 12.7558C23.7999 12.5798 24.035 12.4918 24.5052 12.4918H25.2203C25.9975 12.4918 26.5868 12.733 26.9885 13.2155C27.3901 13.698 27.5909 14.4022 27.5909 15.3281V18.1448C27.5909 18.7969 27.6611 19.2989 27.8015 19.651C27.9419 20.0031 28.2015 20.3324 28.5803 20.6388C28.6913 20.7301 28.7468 20.8051 28.7468 20.8638C28.7468 20.9225 28.6913 20.9974 28.5803 21.0887C28.195 21.4017 27.9338 21.7326 27.7966 22.0814C27.6595 22.4303 27.5909 22.9307 27.5909 23.5827V26.3897C27.5909 27.3221 27.3885 28.0295 26.9836 28.512C26.5787 28.9945 25.9909 29.2358 25.2203 29.2358H24.5052C24.1983 29.2358 24.004 29.2211 23.9224 29.1918C23.8407 29.1624 23.7999 29.0891 23.7999 28.9717C23.7999 28.8087 23.9077 28.7011 24.1232 28.649L24.515 28.5609C25.3771 28.3653 25.8081 27.5144 25.8081 26.0083V23.3382C25.8081 22.3276 26.053 21.6136 26.5428 21.1963L26.7289 21.0398C26.8203 20.9616 26.866 20.9029 26.866 20.8638C26.866 20.8181 26.8203 20.7595 26.7289 20.6877L26.5428 20.5312C26.053 20.1139 25.8081 19.4 25.8081 18.3893Z" fill="#130B43"/>
<path fill-rule="evenodd" clip-rule="evenodd" d="M12.2262 18.3663V15.6963C12.2262 14.7965 12.3356 14.1722 12.5544 13.8233C12.7732 13.4745 13.2287 13.2055 13.9209 13.0165C14.1299 12.9578 14.2344 12.8632 14.2344 12.7328C14.2344 12.5568 13.9993 12.4688 13.5291 12.4688H12.814C12.0368 12.4688 11.4475 12.71 11.0458 13.1925C10.6442 13.675 10.4434 14.3792 10.4434 15.3051V18.1218C10.4434 18.7738 10.3732 19.2759 10.2328 19.628C10.0924 19.9801 9.83279 20.3093 9.45402 20.6158C9.343 20.7071 9.28749 20.7821 9.28749 20.8408C9.28749 20.8994 9.343 20.9744 9.45402 21.0657C9.83932 21.3787 10.1005 21.7096 10.2377 22.0584C10.3748 22.4072 10.4434 22.9077 10.4434 23.5597V26.3667C10.4434 27.2991 10.6458 28.0065 11.0507 28.489C11.4556 28.9715 12.0434 29.2128 12.814 29.2128H13.5291C13.836 29.2128 14.0303 29.1981 14.1119 29.1687C14.1936 29.1394 14.2344 29.066 14.2344 28.9487C14.2344 28.7857 14.1266 28.6781 13.9111 28.6259L13.5193 28.5379C12.6572 28.3423 12.2262 27.4914 12.2262 25.9852V23.3152C12.2262 22.3045 11.9813 21.5906 11.4915 21.1733L11.3054 21.0168C11.214 20.9386 11.1683 20.8799 11.1683 20.8408C11.1683 20.7951 11.214 20.7364 11.3054 20.6647L11.4915 20.5082C11.9813 20.0909 12.2262 19.377 12.2262 18.3663Z" fill="#130B43"/>
</g>
<defs>
<clipPath id="clip0_3423_562">
<rect width="19.4692" height="16.8" fill="white" transform="translate(9.28748 12.4688)"/>
</clipPath>
</defs>
</svg>
